# xmcd
#
# Track frame offsets:
#	150
#	12021
#	25356
#	35964
#	50901
#	67278
#	70310
#	83936
#	97457
#	110656
#	127200
#	141745
#	148746
#	162066
#	175659
#	189476
#	194425
#	214861
#	228673
#	242769
#	256829
#	271538
#	283835
#	298039
#	315924
#	329269
#
# Disc length: 4571 seconds
#
# Revision: 1
# Processed by: cddbd v1.5.2PL0 Copyright (c) Steve Scherf et al.
# Submitted via: audiograbber 1.83.01
#
DISCID=a611d91a
DTITLE=Leadbelly - The Definitive Leadbelly 60th Anniversary Disc 2
DYEAR=2009
DGENRE=blues
TTITLE0=Rock Island Line
TTITLE1=Roberta
TTITLE2=House Of The Rising Sun
TTITLE3=Nobody Knows You When You're Down And Out
TTITLE4=Fannin' Street
TTITLE5=Yellow Gal
TTITLE6=C.C. Rider
TTITLE7=Alabama Bound
TTITLE8=Sweet Mary
TTITLE9=Going Back To Mary
TTITLE10=New Orleans
TTITLE11=Ha, Ha, This-A-Way
TTITLE12=Daddy, I'm Coming Back To You
TTITLE13=Pick A Bale Of Cotton
TTITLE14=Midnight Special
TTITLE15=Sukey Jump
TTITLE16=How Long
TTITLE17=Leaving Blues
TTITLE18=T.B. Blues
TTITLE19=Red Cross Store
TTITLE20=Sail On, Little Girl, Sail On
TTITLE21=Bull Cow
TTITLE22=Alberta
TTITLE23=Digging My Potatoes
TTITLE24=You Can't Lose Me Cholly
TTITLE25=Grey Goose
EXTD=
EXTT0=
EXTT1=
EXTT2=
EXTT3=
EXTT4=
EXTT5=
EXTT6=
EXTT7=
EXTT8=
EXTT9=
EXTT10=
EXTT11=
EXTT12=
EXTT13=
EXTT14=
EXTT15=
EXTT16=
EXTT17=
EXTT18=
EXTT19=
EXTT20=
EXTT21=
EXTT22=
EXTT23=
EXTT24=
EXTT25=
PLAYORDER=
